<?xml version="1.0" encoding="utf-8"?>
<!-- Generator: Adobe Illustrator 16.0.0, SVG Export Plug-In . SVG Version: 6.00 Build 0)  -->
<!DOCTYPE svg PUBLIC "-//W3C//DTD SVG 1.1//EN" "http://www.w3.org/Graphics/SVG/1.1/DTD/svg11.dtd">
<svg version="1.1" id="Layer_1" xmlns="http://www.w3.org/2000/svg" xmlns:xlink="http://www.w3.org/1999/xlink" x="0px" y="0px"
	 width="22px" height="22px" viewBox="0 0 22 22" enable-background="new 0 0 22 22" xml:space="preserve">
<path fill="#CC248E" d="M22,4.125v13.75C22,20.152,20.152,22,17.874,22h-2.691v-8.522h2.85l0.431-3.322h-3.28v-2.12
	c0-0.959,0.257-1.604,1.647-1.604l1.747-0.015V3.452c-0.301-0.043-1.347-0.128-2.549-0.128c-2.535,0-4.283,1.546-4.283,4.383v2.449
	H8.881v3.322h2.864V22H4.126C1.849,22,0,20.152,0,17.875V4.125C0,1.848,1.849,0,4.126,0h13.748C20.152,0,22,1.848,22,4.125z"/>
</svg>
