<?xml version="1.0" encoding="utf-8"?>
<!-- Generator: Adobe Illustrator 16.0.0, SVG Export Plug-In . SVG Version: 6.00 Build 0)  -->
<!DOCTYPE svg PUBLIC "-//W3C//DTD SVG 1.1//EN" "http://www.w3.org/Graphics/SVG/1.1/DTD/svg11.dtd">
<svg version="1.1" id="Layer_1" xmlns="http://www.w3.org/2000/svg" xmlns:xlink="http://www.w3.org/1999/xlink" x="0px" y="0px"
	 width="22px" height="22px" viewBox="0 0 22 22" enable-background="new 0 0 22 22" xml:space="preserve">
<path fill="#CC248E" d="M17.269,6.296c-0.146-0.364-0.322-0.633-0.604-0.914c-0.279-0.28-0.55-0.457-0.914-0.603
	c-1.049-0.415-3.541-0.322-4.703-0.322c-1.163,0-3.655-0.093-4.705,0.322C5.979,4.925,5.71,5.102,5.43,5.382
	c-0.28,0.281-0.457,0.55-0.603,0.914C4.412,7.345,4.505,9.837,4.505,11c0,1.162-0.093,3.655,0.322,4.704
	c0.146,0.364,0.322,0.634,0.603,0.914s0.55,0.456,0.913,0.603c1.05,0.415,3.542,0.322,4.705,0.322c1.162,0,3.654,0.093,4.703-0.322
	c0.364-0.146,0.635-0.322,0.914-0.603c0.281-0.28,0.457-0.55,0.604-0.914c0.414-1.049,0.32-3.542,0.32-4.704
	C17.589,9.837,17.683,7.345,17.269,6.296z M11.048,15.092c-2.264,0-4.092-1.828-4.092-4.092c0-2.264,1.828-4.091,4.092-4.091
	c2.263,0,4.092,1.827,4.092,4.091C15.14,13.264,13.311,15.092,11.048,15.092z M15.305,7.697c-0.528,0-0.955-0.425-0.955-0.955
	c0-0.529,0.427-0.955,0.955-0.955c0.53,0,0.955,0.426,0.955,0.955C16.26,7.272,15.835,7.697,15.305,7.697z M11.048,8.342
	C9.583,8.342,8.39,9.536,8.39,11s1.193,2.658,2.658,2.658c1.464,0,2.658-1.194,2.658-2.658S12.512,8.342,11.048,8.342z M17.874,0
	H4.126C1.849,0,0,1.848,0,4.125v13.75C0,20.152,1.849,22,4.126,22h13.748C20.152,22,22,20.152,22,17.875V4.125
	C22,1.848,20.152,0,17.874,0z M18.972,14.292c-0.063,1.277-0.354,2.409-1.289,3.344c-0.934,0.935-2.066,1.226-3.344,1.287
	c-1.1,0.063-2.19,0.052-3.291,0.052s-2.191,0.012-3.292-0.052c-1.277-0.062-2.409-0.353-3.344-1.287s-1.226-2.066-1.288-3.344
	C3.062,13.191,3.072,12.101,3.072,11S3.062,8.809,3.124,7.708c0.063-1.277,0.354-2.409,1.288-3.344s2.066-1.225,3.344-1.287
	c1.101-0.063,2.191-0.052,3.292-0.052s2.191-0.011,3.291,0.052c1.277,0.062,2.41,0.353,3.344,1.287
	c0.936,0.935,1.227,2.066,1.289,3.344c0.063,1.101,0.051,2.191,0.051,3.292S19.034,13.191,18.972,14.292z"/>
</svg>
