<?xml version="1.0" encoding="utf-8"?>
<!-- Generator: Adobe Illustrator 16.0.0, SVG Export Plug-In . SVG Version: 6.00 Build 0)  -->
<!DOCTYPE svg PUBLIC "-//W3C//DTD SVG 1.1//EN" "http://www.w3.org/Graphics/SVG/1.1/DTD/svg11.dtd">
<svg version="1.1" id="Layer_1" xmlns="http://www.w3.org/2000/svg" xmlns:xlink="http://www.w3.org/1999/xlink" x="0px" y="0px"
	 width="22px" height="22px" viewBox="0 0 22 22" enable-background="new 0 0 22 22" xml:space="preserve">
<path fill="#CC248E" d="M22,17.875C22,20.152,20.152,22,17.874,22H4.126C1.848,22,0,20.152,0,17.875V4.125C0,1.848,1.848,0,4.126,0
	h13.748C20.152,0,22,1.848,22,4.125V17.875z M5.07,3.695c-1.132,0-1.876,0.746-1.876,1.719c0,0.945,0.717,1.719,1.834,1.719h0.013
	c1.161,0,1.877-0.773,1.877-1.719C6.903,4.44,6.202,3.695,5.07,3.695z M6.703,18.419V8.479H3.396v9.939H6.703z M18.604,18.419v-5.7
	c0-3.051-1.633-4.469-3.809-4.469c-1.776,0-2.564,0.988-2.994,1.676h0.029V8.479h-3.31c0,0,0.044,0.931,0,9.939h3.31v-5.558
	c0-0.285,0.015-0.586,0.1-0.802c0.243-0.587,0.788-1.203,1.705-1.203c1.188,0,1.661,0.902,1.661,2.249v5.313H18.604z"/>
</svg>
