<?xml version="1.0" encoding="utf-8"?>
<!-- Generator: Adobe Illustrator 16.0.0, SVG Export Plug-In . SVG Version: 6.00 Build 0)  -->
<!DOCTYPE svg PUBLIC "-//W3C//DTD SVG 1.1//EN" "http://www.w3.org/Graphics/SVG/1.1/DTD/svg11.dtd">
<svg version="1.1" id="Layer_1" xmlns="http://www.w3.org/2000/svg" xmlns:xlink="http://www.w3.org/1999/xlink" x="0px" y="0px"
	 width="22px" height="22px" viewBox="0 0 22 22" enable-background="new 0 0 22 22" xml:space="preserve">
<path fill="#CC248E" d="M22,17.875C22,20.152,20.152,22,17.874,22H4.126C1.849,22,0,20.152,0,17.875V4.125C0,1.848,1.849,0,4.126,0
	h13.748C20.152,0,22,1.848,22,4.125V17.875z M16.601,7.391c0.63-0.373,1.103-0.974,1.332-1.676c-0.587,0.344-1.232,0.602-1.919,0.73
	C15.469,5.858,14.681,5.5,13.821,5.5c-1.66,0-3.007,1.347-3.007,3.008c0,0.229,0.015,0.473,0.071,0.687
	C8.38,9.066,6.159,7.877,4.669,6.044C4.412,6.488,4.253,7.018,4.253,7.563c0,1.045,0.488,1.962,1.304,2.506
	c-0.501-0.014-0.974-0.158-1.431-0.372c0,0,0,0.014,0,0.028c0,1.461,1.103,2.678,2.477,2.951c-0.257,0.072-0.457,0.115-0.73,0.115
	c-0.186,0-0.372-0.029-0.558-0.059c0.386,1.189,1.489,2.063,2.806,2.092c-1.031,0.802-2.319,1.289-3.736,1.289
	c-0.244,0-0.487-0.014-0.717-0.043c1.332,0.846,2.906,1.346,4.612,1.346c5.527,0,8.565-4.582,8.565-8.564
	c0-0.129,0-0.258-0.015-0.387c0.587-0.416,1.103-0.945,1.503-1.562C17.788,7.147,17.216,7.305,16.601,7.391z"/>
</svg>
