<?xml version="1.0" encoding="utf-8"?>
<!-- Generator: Adobe Illustrator 16.0.0, SVG Export Plug-In . SVG Version: 6.00 Build 0)  -->
<!DOCTYPE svg PUBLIC "-//W3C//DTD SVG 1.1//EN" "http://www.w3.org/Graphics/SVG/1.1/DTD/svg11.dtd">
<svg version="1.1" id="Layer_1" xmlns="http://www.w3.org/2000/svg" xmlns:xlink="http://www.w3.org/1999/xlink" x="0px" y="0px"
	 width="22px" height="22px" viewBox="0 0 22 22" enable-background="new 0 0 22 22" xml:space="preserve">
<path fill="#CC248E" d="M17.874,0H4.126C1.848,0,0,1.848,0,4.125v13.75C0,20.152,1.848,22,4.126,22h13.748
	C20.152,22,22,20.152,22,17.875V4.125C22,1.848,20.152,0,17.874,0z M19.101,14.303c-0.148,1.135-0.656,1.642-0.656,1.642
	c-0.627,0.655-1.338,0.655-1.66,0.692c0,0-2.307,0.175-5.784,0.175c-4.298-0.036-5.617-0.166-5.617-0.166
	c-0.37-0.064-1.2-0.046-1.827-0.701c0,0-0.508-0.507-0.655-1.642c-0.175-1.338-0.166-2.675-0.166-2.675v-1.255
	c0,0-0.009-1.337,0.166-2.675c0.147-1.144,0.655-1.642,0.655-1.642c0.627-0.664,1.338-0.664,1.66-0.701c0,0,2.307-0.166,5.784-0.166
	s5.784,0.166,5.784,0.166c0.322,0.037,1.033,0.037,1.66,0.701c0,0,0.508,0.498,0.656,1.642c0.174,1.337,0.165,2.675,0.165,2.675
	v1.255C19.266,11.627,19.274,12.965,19.101,14.303z M9.294,13.141l4.465-2.307L9.294,8.5V13.141z"/>
</svg>
