<svg xmlns="http://www.w3.org/2000/svg" width="22" height="22" viewBox="0 0 22 22"><path class="social-icon" d="M17.3 6.3c-0.1-0.4-0.3-0.6-0.6-0.9 -0.3-0.3-0.5-0.5-0.9-0.6 -1-0.4-3.5-0.3-4.7-0.3 -1.2 0-3.7-0.1-4.7 0.3C6 4.9 5.7 5.1 5.4 5.4c-0.3 0.3-0.5 0.6-0.6 0.9C4.4 7.3 4.5 9.8 4.5 11c0 1.2-0.1 3.7 0.3 4.7 0.1 0.4 0.3 0.6 0.6 0.9s0.6 0.5 0.9 0.6c1.1 0.4 3.5 0.3 4.7 0.3 1.2 0 3.7 0.1 4.7-0.3 0.4-0.1 0.6-0.3 0.9-0.6 0.3-0.3 0.5-0.5 0.6-0.9 0.4-1 0.3-3.5 0.3-4.7C17.6 9.8 17.7 7.3 17.3 6.3zM11 15.1c-2.3 0-4.1-1.8-4.1-4.1 0-2.3 1.8-4.1 4.1-4.1 2.3 0 4.1 1.8 4.1 4.1C15.1 13.3 13.3 15.1 11 15.1zM15.3 7.7c-0.5 0-1-0.4-1-1 0-0.5 0.4-1 1-1 0.5 0 1 0.4 1 1C16.3 7.3 15.8 7.7 15.3 7.7zM11 8.3C9.6 8.3 8.4 9.5 8.4 11s1.2 2.7 2.7 2.7c1.5 0 2.7-1.2 2.7-2.7S12.5 8.3 11 8.3zM17.9 0H4.1C1.8 0 0 1.8 0 4.1v13.8C0 20.2 1.8 22 4.1 22h13.7C20.2 22 22 20.2 22 17.9V4.1C22 1.8 20.2 0 17.9 0zM19 14.3c-0.1 1.3-0.4 2.4-1.3 3.3 -0.9 0.9-2.1 1.2-3.3 1.3 -1.1 0.1-2.2 0.1-3.3 0.1s-2.2 0-3.3-0.1c-1.3-0.1-2.4-0.4-3.3-1.3s-1.2-2.1-1.3-3.3C3.1 13.2 3.1 12.1 3.1 11S3.1 8.8 3.1 7.7c0.1-1.3 0.4-2.4 1.3-3.3s2.1-1.2 3.3-1.3c1.1-0.1 2.2-0.1 3.3-0.1s2.2 0 3.3 0.1c1.3 0.1 2.4 0.4 3.3 1.3 0.9 0.9 1.2 2.1 1.3 3.3 0.1 1.1 0.1 2.2 0.1 3.3S19 13.2 19 14.3z" fill="#CC248E"/></svg>
