<svg xmlns="http://www.w3.org/2000/svg" width="22" height="22" viewBox="0 0 22 22"><path class="social-icon" d="M22 17.9C22 20.2 20.2 22 17.9 22H4.1C1.8 22 0 20.2 0 17.9V4.1C0 1.8 1.8 0 4.1 0h13.7C20.2 0 22 1.8 22 4.1V17.9zM5.1 3.7c-1.1 0-1.9 0.7-1.9 1.7 0 0.9 0.7 1.7 1.8 1.7h0c1.2 0 1.9-0.8 1.9-1.7C6.9 4.4 6.2 3.7 5.1 3.7zM6.7 18.4V8.5H3.4v9.9H6.7zM18.6 18.4v-5.7c0-3.1-1.6-4.5-3.8-4.5 -1.8 0-2.6 1-3 1.7h0V8.5h-3.3c0 0 0 0.9 0 9.9h3.3v-5.6c0-0.3 0-0.6 0.1-0.8 0.2-0.6 0.8-1.2 1.7-1.2 1.2 0 1.7 0.9 1.7 2.2v5.3H18.6z" fill="#CC248E"/></svg>
