<svg xmlns="http://www.w3.org/2000/svg" id="Layer_1" width="310" height="158" viewBox="0 0 310 158.1"><style>.a{stop-color:#CC248E;}.b{stop-color:#62499D;}</style><linearGradient id="SVGID_1_" gradientUnits="userSpaceOnUse" x1="155" y1="157.5" x2="155" y2="1.1"><stop offset="0" class="a"/><stop offset="1" class="b"/></linearGradient><rect x="128.1" width="53.8" height="158.1" fill="url(#SVGID_1_)"/><linearGradient id="SVGID_2_" gradientUnits="userSpaceOnUse" x1="247.8" y1="157.5" x2="247.8" y2="1.1"><stop offset="0" class="a"/><stop offset="1" class="b"/></linearGradient><rect x="185.5" width="124.5" height="50.3" fill="url(#SVGID_2_)"/><linearGradient id="SVGID_3_" gradientUnits="userSpaceOnUse" x1="247.8" y1="157.5" x2="247.8" y2="1.1"><stop offset="0" class="a"/><stop offset="1" class="b"/></linearGradient><rect x="185.5" y="53.9" width="124.5" height="50.3" fill="url(#SVGID_3_)"/><linearGradient id="SVGID_4_" gradientUnits="userSpaceOnUse" x1="247.8" y1="157.5" x2="247.8" y2="1.1"><stop offset="0" class="a"/><stop offset="1" class="b"/></linearGradient><rect x="185.5" y="107.8" width="124.5" height="50.3" fill="url(#SVGID_4_)"/><linearGradient id="SVGID_5_" gradientUnits="userSpaceOnUse" x1="62.2" y1="157.5" x2="62.2" y2="1.1"><stop offset="0" class="a"/><stop offset="1" class="b"/></linearGradient><path d="M124.5 52.7V0H54.7v0C24.4 0.4 0 23.9 0 52.7c0 29.1 24.8 52.7 55.5 52.7H0v52.7h69.8v0c30.3-0.4 54.7-23.9 54.7-52.7 0-29.1-24.8-52.7-55.5-52.7H124.5z" fill="url(#SVGID_5_)"/></svg>