<svg xmlns="http://www.w3.org/2000/svg" width="22" height="22" viewBox="0 0 22 22"><path class="social-icon" d="M22 17.9C22 20.2 20.2 22 17.9 22H4.1C1.8 22 0 20.2 0 17.9V4.1C0 1.8 1.8 0 4.1 0h13.7C20.2 0 22 1.8 22 4.1V17.9zM16.6 7.4c0.6-0.4 1.1-1 1.3-1.7 -0.6 0.3-1.2 0.6-1.9 0.7C15.5 5.9 14.7 5.5 13.8 5.5c-1.7 0-3 1.3-3 3 0 0.2 0 0.5 0.1 0.7C8.4 9.1 6.2 7.9 4.7 6 4.4 6.5 4.3 7 4.3 7.6c0 1 0.5 2 1.3 2.5 -0.5 0-1-0.2-1.4-0.4 0 0 0 0 0 0 0 1.5 1.1 2.7 2.5 3 -0.3 0.1-0.5 0.1-0.7 0.1 -0.2 0-0.4 0-0.6-0.1 0.4 1.2 1.5 2.1 2.8 2.1 -1 0.8-2.3 1.3-3.7 1.3 -0.2 0-0.5 0-0.7 0 1.3 0.8 2.9 1.3 4.6 1.3 5.5 0 8.6-4.6 8.6-8.6 0-0.1 0-0.3 0-0.4 0.6-0.4 1.1-0.9 1.5-1.6C17.8 7.1 17.2 7.3 16.6 7.4z" fill="#CC248E"/></svg>
