<svg xmlns="http://www.w3.org/2000/svg" width="22" height="22" viewBox="0 0 22 22"><path class="social-icon" d="M17.9 0H4.1C1.8 0 0 1.8 0 4.1v13.8C0 20.2 1.8 22 4.1 22h13.7C20.2 22 22 20.2 22 17.9V4.1C22 1.8 20.2 0 17.9 0zM19.1 14.3c-0.1 1.1-0.7 1.6-0.7 1.6 -0.6 0.7-1.3 0.7-1.7 0.7 0 0-2.3 0.2-5.8 0.2 -4.3 0-5.6-0.2-5.6-0.2 -0.4-0.1-1.2 0-1.8-0.7 0 0-0.5-0.5-0.7-1.6 -0.2-1.3-0.2-2.7-0.2-2.7v-1.3c0 0 0-1.3 0.2-2.7 0.1-1.1 0.7-1.6 0.7-1.6 0.6-0.7 1.3-0.7 1.7-0.7 0 0 2.3-0.2 5.8-0.2s5.8 0.2 5.8 0.2c0.3 0 1 0 1.7 0.7 0 0 0.5 0.5 0.7 1.6 0.2 1.3 0.2 2.7 0.2 2.7v1.3C19.3 11.6 19.3 13 19.1 14.3zM9.3 13.1l4.5-2.3L9.3 8.5V13.1z" fill="#CC248E"/></svg>
